<svg xmlns="http://www.w3.org/2000/svg" xmlns:xlink="http://www.w3.org/1999/xlink" viewBox="0 0 270.03 99.39"><defs><style>.cls-1{fill:none;}.cls-2{isolation:isolate;}.cls-3{clip-path:url(#clip-path);}.cls-4{fill:#a39f9f;}.cls-5{fill:#2c2c2c;}.cls-6{fill:#505050;}.cls-7{fill:#e8e8e8;}.cls-8{fill:#bf2626;}</style><clipPath id="clip-path" transform="translate(-189.64 -312.01)"><polygon class="cls-1" points="190.51 365.79 331.76 316.35 458.81 357.63 317.55 407.07 190.51 365.79"/></clipPath></defs><g id="map"><g class="cls-2"><g class="cls-3"><polyline class="cls-4" points="269.17 45.62 142.12 4.34 0.87 53.77 127.91 95.05 269.17 45.62"/></g></g><g class="cls-2"><polygon class="cls-5" points="193.56 19.8 191.18 30.24 140.09 15.01 142.47 4.57 193.56 19.8"/><polygon class="cls-5" points="256.2 38.47 253.83 48.9 198.32 32.36 200.7 21.92 256.2 38.47"/><polygon class="cls-5" points="270.03 38.15 267.65 48.59 260.95 51.02 263.33 40.59 270.03 38.15"/><polygon class="cls-5" points="200.7 21.92 198.32 32.36 129.52 57.39 131.9 46.95 200.7 21.92"/><polygon class="cls-5" points="131.9 46.95 129.52 57.39 122.38 55.27 124.76 44.83 131.9 46.95"/><polygon class="cls-5" points="142.47 4.57 140.09 15.01 13.84 60.93 16.21 50.49 142.47 4.57"/><polygon class="cls-5" points="44.5 63.36 42.13 73.8 0 61.24 2.38 50.8 44.5 63.36"/><polygon class="cls-5" points="263.33 40.59 260.95 51.02 134.71 96.95 137.08 86.51 263.33 40.59"/><polygon class="cls-5" points="123.25 86.83 120.87 97.26 42.13 73.8 44.5 63.36 123.25 86.83"/><polygon class="cls-5" points="137.08 86.51 134.71 96.95 128 99.39 130.37 88.95 137.08 86.51"/><polygon class="cls-5" points="130.37 88.95 128 99.39 120.87 97.26 123.25 86.83 130.37 88.95"/><path class="cls-6" d="M312.89,398.84l-78.75-23.47L192,362.81l6.7-2.43L325,314.45l5.65-2.05,1.06-.39,7.13,2.13,51.1,15.23L397,331.5l28.24,8.42,34.39,10.25L453,352.6,326.72,398.53,320,401Zm19.22-82.26L205.86,362.5l113.73,33.9,126.25-45.92-55.5-16.55-68.8,25-7.14-2.12,68.8-25-51.09-15.23" transform="translate(-189.64 -312.01)"/></g></g>
<g id="point1"><path class="cls-7" d="M323.57,332.49a3.85,3.85,0,1,0-5.38,3.53l2.05,7.94,1.3-8.09A3.84,3.84,0,0,0,323.57,332.49Z" transform="translate(-189.64 -312.01)"/><circle class="cls-8" cx="130.08" cy="20.31" r="3.85"/></g>
<g id="point2"><path class="cls-7" d="M267.91,354.89a3.85,3.85,0,1,0-5.38,3.53l2.05,7.94,1.3-8.09A3.82,3.82,0,0,0,267.91,354.89Z" transform="translate(-189.64 -312.01)"/><circle class="cls-8" cx="74.42" cy="42.71" r="3.85"/></g>
<g id="point3"><path class="cls-7" d="M323.57,375.38a3.85,3.85,0,1,0-5.38,3.53l2.05,7.94,1.3-8.09A3.82,3.82,0,0,0,323.57,375.38Z" transform="translate(-189.64 -312.01)"/><circle class="cls-8" cx="130.08" cy="63.2" r="3.85"/></g>
<g id="point4"><path class="cls-7" d="M375.83,358a3.85,3.85,0,1,0-5.39,3.52l2.05,7.94,1.31-8.09A3.84,3.84,0,0,0,375.83,358Z" transform="translate(-189.64 -312.01)"/><circle class="cls-8" cx="182.34" cy="45.8" r="3.85"/></g>
</svg>
